<?xml version="1.0" standalone="no"?>
<!DOCTYPE svg PUBLIC "-//W3C//DTD SVG 20010904//EN"
 "http://www.w3.org/TR/2001/REC-SVG-20010904/DTD/svg10.dtd">
<svg version="1.0" xmlns="http://www.w3.org/2000/svg"
 width="152.000000pt" height="152.000000pt" viewBox="0 0 152.000000 152.000000"
 preserveAspectRatio="xMidYMid meet">
<metadata>
Created by potrace 1.14, written by Peter Selinger 2001-2017
</metadata>
<g transform="translate(0.000000,152.000000) scale(0.100000,-0.100000)"
fill="#000000" stroke="none">
<path d="M157 1506 c-63 -23 -109 -67 -138 -132 -18 -40 -19 -74 -16 -625 2
-646 -1 -612 68 -680 69 -67 34 -64 679 -66 552 -2 587 -1 626 16 48 22 95 66
121 112 17 32 18 70 18 629 0 657 3 620 -64 689 -68 69 -34 66 -676 68 -468 2
-587 0 -618 -11z m1222 -63 c31 -19 54 -43 69 -73 l22 -45 -2 -576 -3 -575
-27 -41 c-16 -25 -44 -49 -71 -62 -43 -21 -53 -21 -612 -22 l-568 0 -46 28
c-32 19 -53 42 -69 74 l-23 46 0 554 c1 305 3 565 6 578 7 39 52 99 87 118 44
24 189 29 752 26 l440 -3 45 -27z"/>
<path d="M533 1087 c-7 -12 -7 -647 1 -654 3 -3 110 -6 238 -6 l233 1 3 41 3
41 -194 0 -194 0 -1 105 c0 73 3 105 11 106 7 1 82 2 167 3 l155 1 0 40 0 40
-150 1 c-82 1 -157 2 -166 3 -14 1 -17 16 -17 101 l0 100 187 0 187 0 1 40 c1
38 -1 40 -31 40 -278 5 -429 3 -433 -3z"/>
</g>
</svg>
